<svg width="308" height="309" viewBox="0 0 308 309" fill="none" xmlns="http://www.w3.org/2000/svg">
<path d="M24.64 147.002C27.1451 147.208 28.5824 145.106 28.7826 142.624L29.0085 139.828L21.7602 139.235C21.6319 140.384 21.5189 141.362 21.4522 142.166C21.1699 145.663 22.7201 146.847 24.64 147.002ZM263.468 113.928C265.162 118.501 269.983 120.335 274.505 118.651C279.027 116.967 281.461 112.352 279.772 107.779C278.083 103.206 273.258 101.378 268.735 103.062C264.213 104.746 261.8 109.36 263.468 113.928ZM115.859 268.892C115.284 270.88 116.522 272.523 119.776 273.47L124.648 274.886L126.516 268.423L121.347 266.914C118.529 266.09 116.496 266.703 115.859 268.892ZM114.319 279.192C113.78 281.046 114.925 282.622 117.579 283.394L121.845 284.635L123.657 278.373L119.694 277.214C117.04 276.462 114.935 276.988 114.294 279.212L114.319 279.192ZM180.724 34.541L178.394 24.205L172.516 33.0012C173.892 33.2123 175.267 33.4441 176.623 33.7016C177.978 33.9591 179.359 34.2372 180.724 34.541ZM32.4786 169.857L23.562 175.553L33.8287 178.128C33.5617 176.755 33.317 175.382 33.0946 174.008C32.8533 172.633 32.6531 171.243 32.4786 169.857ZM118.067 43.3372C122.687 41.8335 124.74 37.0748 123.2 32.4759C121.66 27.8769 117.22 25.2659 112.595 26.7491C107.969 28.2323 105.921 33.0063 107.461 37.6104C109.001 42.2145 113.447 44.8462 118.067 43.3372ZM92.2871 258.813C91.014 260.992 91.9175 263.113 94.7203 264.767L97.9132 266.652L102.02 259.668L98.7653 257.747C96.0344 256.13 93.709 256.424 92.3076 258.813H92.2871ZM278.997 168.307C274.315 167.478 269.823 170.213 268.976 175.002C268.129 179.792 271.369 183.829 276.117 184.674C280.865 185.518 285.295 182.768 286.137 177.979C286.979 173.189 283.75 169.147 278.997 168.307ZM149.575 109.046H174.605C173.969 104.221 172.126 99.4104 169.143 95.79C163.404 88.6418 155.283 87.4521 149.945 87.4521H135.659V217.098H149.575V168.714H167.737V217.047H183.476V194.526C183.476 164.584 173.928 148.238 149.395 148.238V141.002H149.555C158.738 141.002 165.242 136.393 169.195 131.428C173.691 125.954 174.636 120.793 174.841 116.189H149.585L149.575 109.046ZM154 0C68.9458 0 0 69.1696 0 154.5C0 239.83 68.9458 309 154 309C239.054 309 308 239.83 308 154.5C308 69.1696 239.054 0 154 0ZM289.884 134.678L279.679 135.636H279.623C279.962 137.953 280.249 140.271 280.465 142.619C280.68 144.967 280.834 147.29 280.927 149.633H280.988L291.116 148.68L291.322 152.991L267.149 155.267L267.041 150.941L277.02 150.004H277.118C277.031 147.666 276.877 145.318 276.661 142.99C276.445 140.662 276.148 138.324 275.809 136.012H275.711L265.727 136.949L265.039 132.679L289.197 130.408L289.884 134.678ZM283.499 106.466C286.117 113.537 282.6 120.458 276.076 122.889C269.551 125.32 262.36 122.312 259.742 115.242C257.124 108.171 260.64 101.249 267.164 98.8182C273.689 96.3874 280.881 99.395 283.499 106.466ZM265.393 73.9128L256.887 79.516L258.248 81.576L271.307 83.0592L273.94 87.344L259.09 85.2273L256.523 93.2047C255.645 96.0114 255.65 97.9375 256.995 99.1066L253.869 101.167C250.969 98.71 251.302 95.1359 252.647 91.4382L255.168 84.1613L253.551 81.6842L245.091 87.2513L242.565 83.7544L262.791 70.4314L265.393 73.9128ZM225.441 59.4001L229.732 59.9923C229.444 61.3722 229.526 62.8038 229.969 64.1417C230.411 65.4795 231.199 66.6759 232.253 67.6092C235.363 70.4468 239.686 70.3799 242.868 68.0263C241.061 66.1672 239.193 64.3493 237.278 62.6085C236.508 61.903 235.738 61.2026 234.932 60.5177L237.432 57.6182C238.238 58.3186 239.054 59.0448 239.85 59.7658C241.759 61.5116 243.628 63.3192 245.435 65.1784C247.488 61.7691 247.108 57.5513 244.013 54.729C243.008 53.7946 241.782 53.1326 240.451 52.8055C239.12 52.4784 237.727 52.497 236.405 52.8596L235.456 48.5542C237.436 48.1447 239.485 48.2211 241.429 48.7771C243.372 49.333 245.154 50.352 246.621 51.7472C252.185 56.8199 252.237 64.6892 247.606 69.8031C242.976 74.9171 235.214 75.6638 229.64 70.591C228.075 69.2172 226.872 67.4769 226.138 65.5246C225.405 63.5723 225.164 61.4685 225.435 59.4001H225.441ZM206.185 40.2781C206.621 39.4074 207.304 38.686 208.148 38.2053C208.993 37.7246 209.961 37.5064 210.929 37.5782C211.897 37.65 212.823 38.0087 213.587 38.6087C214.352 39.2087 214.922 40.0231 215.225 40.9486C215.528 41.8741 215.55 42.8689 215.289 43.8071C215.027 44.7452 214.494 45.5844 213.757 46.2181C213.02 46.8518 212.111 47.2516 211.147 47.3668C210.183 47.482 209.207 47.3073 208.341 46.865C207.186 46.2771 206.31 45.2539 205.905 44.0194C205.5 42.7848 205.599 41.4396 206.18 40.2781H206.185ZM203.239 197.245V225.055H115.972V80.2215H146.541C146.829 80.2215 147.055 80.2215 147.28 80.2215H154.688C169.328 80.2215 175.452 82.7965 182.408 88.168C192.49 96.099 194.081 107.609 194.081 113.372C194.081 120.52 191.905 128.065 186.561 134.214C183.768 137.572 179.508 141.996 172.511 144.885C194.687 152.764 203.239 170.64 203.239 197.245ZM177.449 18.7769L181.366 19.5133L187.428 46.1337L182.885 44.8359L181.587 38.6868C179.713 38.2387 177.814 37.8319 175.94 37.4766C174.066 37.1212 172.146 36.8122 170.242 36.5444L166.751 41.8077L162.177 41.3802L177.449 18.7769ZM133.816 38.934C134.279 39.0376 134.754 39.0723 135.227 39.037C137.702 38.8516 139.883 37.1006 138.775 22.4437L138.697 21.4652L138.41 17.6439L139.021 17.5718L148.261 16.8662C150.571 16.7684 152.881 16.7272 155.196 16.7427L155.489 20.5794L157.029 40.8241L152.742 41.1537L151.202 20.6051C148.79 20.6618 146.372 20.7802 143.975 20.9656L142.743 21.0686L142.927 23.3965C144.108 38.9649 141.521 42.2918 136.711 42.6575C135.711 42.711 134.708 42.6592 133.718 42.5029L133.816 38.934ZM111.496 22.969C118.647 20.6412 125.397 24.4522 127.548 31.0906C129.699 37.7289 126.403 44.8153 119.252 47.1483C112.102 49.4812 105.357 45.665 103.206 39.0267C101.055 32.3883 104.335 25.2865 111.481 22.9535L111.496 22.969ZM77.3696 40.2678L82.6467 48.961L84.7719 47.6581L86.6712 34.6183L91.0242 32.1154L88.4576 46.9371L96.3219 49.7593C99.0887 50.7378 101.009 50.7893 102.215 49.476L104.166 52.6793C101.63 55.5118 98.0724 55.0586 94.4123 53.5909L87.2256 50.8305L84.7051 52.3755L89.9771 61.0326L86.4145 63.4531L73.8276 42.745L77.3696 40.2678ZM42.8479 73.7429L58.4071 87.1329C60.2448 84.5166 62.1818 81.9811 64.218 79.5263L48.7667 66.1363C49.6838 65.0342 50.6215 63.9458 51.5797 62.8712L67.0259 76.2612C69.1819 73.8579 71.4372 71.5369 73.7917 69.2984L58.2325 55.9084C59.2592 54.9024 60.2978 53.9171 61.3485 52.9523L76.9127 66.435L79.9568 69.077C71.846 76.1503 64.7816 84.3474 58.9769 93.421L55.9533 90.7945L40.3685 77.25C41.1762 76.0792 41.9975 74.9119 42.8325 73.748L42.8479 73.7429ZM33.2999 105.977C33.6613 105.074 34.2814 104.299 35.0818 103.75C35.8822 103.201 36.8269 102.902 37.7965 102.892C38.7661 102.881 39.7171 103.16 40.529 103.691C41.341 104.223 41.9775 104.985 42.3581 105.879C42.7386 106.774 42.8462 107.762 42.6671 108.718C42.488 109.674 42.0303 110.555 41.352 111.25C40.6736 111.946 39.805 112.423 38.856 112.623C37.907 112.823 36.9203 112.736 36.0206 112.373C34.8139 111.888 33.848 110.943 33.3351 109.745C32.8221 108.547 32.804 107.193 33.2845 105.982L33.2999 105.977ZM17.3353 142.078C17.3917 141.383 17.9667 136.006 18.2028 134.647L42.4116 136.593L41.811 140.94L33.033 140.147L32.7866 143.155L38.5359 147.99C41.3901 150.406 41.9291 153.3 40.9948 155.298L37.2885 155.37C37.8019 154.036 37.0113 152.09 35.8615 151.08L31.6008 147.388C30.7384 149.36 28.4335 151.879 24.2499 151.539C20.0662 151.199 16.7809 148.763 17.3199 142.083L17.3353 142.078ZM18.1771 174.322L41.0667 159.609L41.3901 164.331L36.0565 167.638C36.2721 169.559 36.5339 171.49 36.8419 173.395C37.1499 175.301 37.499 177.206 37.8943 179.096L44.0081 180.641L45.1528 185.101L18.7777 178.298L18.1771 174.322ZM38.7105 229.479C37.937 228.274 37.179 227.057 36.4364 225.827L54.8086 216.686C53.1215 213.967 51.5489 211.188 50.0911 208.348L31.7651 217.387C31.1148 216.109 30.4817 214.819 29.8657 213.514L48.1969 204.476C46.828 201.544 45.5789 198.555 44.4495 195.509L26.0619 204.64C25.5452 203.305 25.0472 201.962 24.5681 200.613L43.0481 191.503L46.6415 189.721C49.968 199.973 54.7334 209.698 60.7941 218.602L57.2007 220.379L38.7105 229.479ZM52.7142 248.23C51.3095 246.772 50.2771 244.994 49.705 243.049C49.133 241.104 49.0382 239.049 49.4289 237.06L53.7255 237.971C53.3776 239.301 53.3727 240.698 53.7113 242.031C54.0498 243.363 54.7207 244.587 55.6607 245.588C58.9615 249.162 64.1153 249.018 67.6573 245.727C71.1993 242.436 71.6921 237.245 68.3914 233.671C67.4492 232.626 66.2479 231.85 64.9098 231.423C63.5718 230.995 62.1446 230.93 60.7735 231.235L60.1421 226.935C62.2022 226.643 64.3023 226.866 66.2556 227.585C68.2088 228.304 69.9547 229.496 71.3379 231.055C76.4456 236.591 75.8245 244.331 70.7219 249.08C65.6194 253.828 57.8219 253.782 52.7142 248.23ZM71.1121 264.87L85.1928 244.785L88.6783 247.246L74.6027 267.331L71.1121 264.87ZM95.2387 279.655L91.5633 277.482L96.0292 269.865L92.6875 267.893C87.9546 265.096 86.1424 260.853 88.6475 256.594C91.1526 252.335 95.7777 251.485 100.66 254.364L107.651 258.484L95.2387 279.655ZM124.858 289.342L115.906 287.061C113.216 286.278 111.363 284.769 110.408 283.029C110.035 282.359 109.804 281.62 109.731 280.856C109.658 280.093 109.743 279.323 109.982 278.594C110.798 275.767 112.851 274.722 114.858 274.32C112.379 272.574 110.926 270.432 111.871 267.167C113.087 262.954 117.199 261.702 122.44 263.232L131.639 265.915L124.858 289.342ZM154.051 285.197C153.082 285.197 152.134 284.908 151.328 284.368C150.522 283.827 149.893 283.059 149.522 282.161C149.151 281.262 149.054 280.273 149.243 279.319C149.432 278.365 149.899 277.489 150.585 276.801C151.27 276.113 152.144 275.644 153.095 275.455C154.046 275.265 155.032 275.362 155.927 275.735C156.823 276.107 157.589 276.737 158.127 277.546C158.666 278.355 158.954 279.306 158.954 280.278C158.957 280.926 158.833 281.567 158.588 282.167C158.344 282.766 157.983 283.31 157.528 283.769C157.073 284.228 156.532 284.592 155.936 284.841C155.341 285.089 154.702 285.217 154.056 285.217L154.051 285.197ZM202.335 283.394L196.93 266.518L189.595 287.504L185.534 288.534L178.127 265.343L182.233 264.313L187.69 281.35L195.067 260.173L198.835 258.628L206.278 281.859L202.335 283.394ZM231.39 268.284L226.036 259.606L223.921 260.92L222.104 273.98L217.761 276.509L220.266 261.677L212.381 258.896C209.609 257.938 207.69 257.866 206.488 259.215L204.522 256.022C207.043 253.179 210.6 253.612 214.245 255.059L221.431 257.778L223.942 256.233L218.618 247.602L222.166 245.161L234.906 265.802L231.39 268.284ZM259.536 242.596L246.518 230.607L250.507 252.504L247.488 255.425L229.583 238.945L232.663 236.009L245.799 248.112L241.78 226.013L244.295 222.804L262.211 239.31L259.536 242.596ZM279.874 209.605C279.874 209.605 263.299 207.792 260.558 207.169L260.506 207.272C262.56 209.08 274.007 221.522 274.007 221.522L270.927 226.801L248.258 217.268L250.661 213.364L259.86 217.361C262.77 218.628 266.256 220.137 269.243 221.661L269.295 221.558C266.99 219.467 254.649 205.918 254.649 205.918L256.256 202.652C256.256 202.652 274.125 204.805 277.174 205.542L277.21 205.47C274.387 203.925 270.963 202.071 268.042 200.412L259.449 195.504L260.989 191.343L282.226 203.858L279.874 209.605ZM290.033 178.736C288.729 186.162 282.205 190.349 275.352 189.139C268.499 187.929 263.807 181.682 265.116 174.255C266.425 166.829 272.944 162.637 279.797 163.852C286.65 165.068 291.322 171.31 290.033 178.736Z" fill="#0F2D69"/>
</svg>
