<svg xmlns="http://www.w3.org/2000/svg" viewBox="0 0 51.24 18.09"><defs><style>.cls-1{fill:#fff;}.cls-2{fill:#f01e28;}</style></defs><g id="Layer_2" data-name="Layer 2"><g id="Layer_1-2" data-name="Layer 1"><rect class="cls-1" x="3.04" y="2.07" width="45.38" height="14.17"/><path class="cls-2" d="M29.81,7.25a1.41,1.41,0,0,0,.43,1.11,1.82,1.82,0,0,0,1.25.39h2V5.8h-2C30.37,5.8,29.81,6.28,29.81,7.25Z"/><polygon class="cls-2" points="21.75 6.04 21.65 6.04 21.31 7.6 20.7 9.94 22.78 9.94 22.09 7.58 21.75 6.04"/><path class="cls-2" d="M0,0V18.09H51.24V0ZM15.43,14.49H13.18V10.17l.27-2.09h-.16l-.52,1.51-1.49,3.47H9.6L8.1,9.57,7.58,8.09H7.43l.24,2.1v4.3H5.42V3.65H7.78l2.63,6.23,2.66-6.23h2.36Zm8.88,0L23.36,12H20.13l-.9,2.48h-2.4L20.62,3.65h2.16l3.89,10.84Zm11.46,0H33.51V10.58h-.83L29.5,14.49H26.67l3.47-4.1a3,3,0,0,1-2.58-3.28,3.2,3.2,0,0,1,1.08-2.57,4.35,4.35,0,0,1,2.88-.89h4.25Zm11.37,0H44.29L41,10.34l-.45.44v3.71H38.26V3.65h2.25v4.5l3.83-4.5h2.83L42.56,9Z"/></g></g></svg>